<mxfile host="app.diagrams.net" modified="2020-09-28T10:58:16.778Z" agent="5.0 (Macintosh; Intel Mac OS X 10_15_5) AppleWebKit/537.36 (KHTML, like Gecko) Chrome/85.0.4183.102 Safari/537.36" etag="Q12l4ozjB4630YZlbvw2" version="13.7.3" type="github">
  <diagram id="Vr5jvqpNPJQWCU1TZzJC" name="Page-1">
    <mxGraphModel dx="946" dy="614" grid="0" gridSize="10" guides="1" tooltips="1" connect="1" arrows="1" fold="1" page="1" pageScale="1" pageWidth="827" pageHeight="1169" math="0" shadow="0">
      <root>
        <mxCell id="0" />
        <mxCell id="1" parent="0" />
        <mxCell id="5zI7_Pe21EK5ix0b4mOg-43" value="" style="rounded=0;whiteSpace=wrap;html=1;shadow=0;glass=0;sketch=0;" vertex="1" parent="1">
          <mxGeometry x="54" y="1194" width="720" height="370" as="geometry" />
        </mxCell>
        <mxCell id="5zI7_Pe21EK5ix0b4mOg-83" value="" style="rounded=0;whiteSpace=wrap;html=1;shadow=0;glass=0;sketch=0;dashed=1;dashPattern=1 1;fillColor=#dae8fc;strokeColor=#6c8ebf;" vertex="1" parent="1">
          <mxGeometry x="179" y="1309.5" width="78" height="173.5" as="geometry" />
        </mxCell>
        <mxCell id="5zI7_Pe21EK5ix0b4mOg-16" value="" style="rounded=0;whiteSpace=wrap;html=1;shadow=0;glass=0;sketch=0;" vertex="1" parent="1">
          <mxGeometry x="40" y="770" width="720" height="370" as="geometry" />
        </mxCell>
        <mxCell id="5zI7_Pe21EK5ix0b4mOg-40" value="" style="rounded=0;whiteSpace=wrap;html=1;shadow=0;glass=0;sketch=0;dashed=1;dashPattern=1 1;" vertex="1" parent="1">
          <mxGeometry x="564.5" y="891" width="144" height="175" as="geometry" />
        </mxCell>
        <mxCell id="5zI7_Pe21EK5ix0b4mOg-13" value="" style="rounded=0;whiteSpace=wrap;html=1;shadow=0;glass=0;dashed=1;sketch=0;" vertex="1" parent="1">
          <mxGeometry x="40" y="520" width="710" height="190" as="geometry" />
        </mxCell>
        <mxCell id="5zI7_Pe21EK5ix0b4mOg-12" value="" style="rounded=0;whiteSpace=wrap;html=1;shadow=0;glass=0;dashed=1;sketch=0;" vertex="1" parent="1">
          <mxGeometry x="40" y="100" width="710" height="390" as="geometry" />
        </mxCell>
        <mxCell id="5zI7_Pe21EK5ix0b4mOg-6" style="edgeStyle=orthogonalEdgeStyle;rounded=0;orthogonalLoop=1;jettySize=auto;html=1;exitX=0.5;exitY=1;exitDx=0;exitDy=0;" edge="1" parent="1" source="5zI7_Pe21EK5ix0b4mOg-1" target="5zI7_Pe21EK5ix0b4mOg-4">
          <mxGeometry relative="1" as="geometry">
            <Array as="points">
              <mxPoint x="130" y="250" />
              <mxPoint x="240" y="250" />
            </Array>
          </mxGeometry>
        </mxCell>
        <mxCell id="5zI7_Pe21EK5ix0b4mOg-1" value="node1" style="rounded=0;whiteSpace=wrap;html=1;" vertex="1" parent="1">
          <mxGeometry x="70" y="140" width="120" height="60" as="geometry" />
        </mxCell>
        <mxCell id="5zI7_Pe21EK5ix0b4mOg-8" style="edgeStyle=orthogonalEdgeStyle;rounded=0;orthogonalLoop=1;jettySize=auto;html=1;entryX=0.5;entryY=0;entryDx=0;entryDy=0;entryPerimeter=0;" edge="1" parent="1" source="5zI7_Pe21EK5ix0b4mOg-2" target="5zI7_Pe21EK5ix0b4mOg-4">
          <mxGeometry relative="1" as="geometry">
            <Array as="points">
              <mxPoint x="414" y="250" />
              <mxPoint x="240" y="250" />
            </Array>
          </mxGeometry>
        </mxCell>
        <mxCell id="5zI7_Pe21EK5ix0b4mOg-2" value="node2" style="rounded=0;whiteSpace=wrap;html=1;" vertex="1" parent="1">
          <mxGeometry x="354" y="140" width="120" height="60" as="geometry" />
        </mxCell>
        <mxCell id="5zI7_Pe21EK5ix0b4mOg-10" style="edgeStyle=orthogonalEdgeStyle;rounded=0;orthogonalLoop=1;jettySize=auto;html=1;" edge="1" parent="1" source="5zI7_Pe21EK5ix0b4mOg-4" target="5zI7_Pe21EK5ix0b4mOg-5">
          <mxGeometry relative="1" as="geometry" />
        </mxCell>
        <mxCell id="5zI7_Pe21EK5ix0b4mOg-4" value="" style="fontColor=#0066CC;verticalAlign=top;verticalLabelPosition=bottom;labelPosition=center;align=center;html=1;outlineConnect=0;fillColor=#CCCCCC;strokeColor=#6881B3;gradientColor=none;gradientDirection=north;strokeWidth=2;shape=mxgraph.networks.patch_panel;" vertex="1" parent="1">
          <mxGeometry x="190" y="310" width="100" height="35" as="geometry" />
        </mxCell>
        <mxCell id="5zI7_Pe21EK5ix0b4mOg-15" style="edgeStyle=orthogonalEdgeStyle;rounded=0;orthogonalLoop=1;jettySize=auto;html=1;entryX=0.5;entryY=0;entryDx=0;entryDy=0;" edge="1" parent="1" source="5zI7_Pe21EK5ix0b4mOg-5" target="5zI7_Pe21EK5ix0b4mOg-9">
          <mxGeometry relative="1" as="geometry" />
        </mxCell>
        <mxCell id="5zI7_Pe21EK5ix0b4mOg-5" value="" style="fontColor=#0066CC;verticalAlign=top;verticalLabelPosition=bottom;labelPosition=center;align=center;html=1;outlineConnect=0;fillColor=#CCCCCC;strokeColor=#6881B3;gradientColor=none;gradientDirection=north;strokeWidth=2;shape=mxgraph.networks.proxy_server;" vertex="1" parent="1">
          <mxGeometry x="369" y="360" width="105" height="105" as="geometry" />
        </mxCell>
        <mxCell id="5zI7_Pe21EK5ix0b4mOg-9" value="node3" style="rounded=0;whiteSpace=wrap;html=1;" vertex="1" parent="1">
          <mxGeometry x="361.5" y="570" width="120" height="60" as="geometry" />
        </mxCell>
        <mxCell id="5zI7_Pe21EK5ix0b4mOg-17" value="" style="endArrow=none;dashed=1;html=1;exitX=0;exitY=0.25;exitDx=0;exitDy=0;entryX=1;entryY=0.25;entryDx=0;entryDy=0;" edge="1" parent="1" source="5zI7_Pe21EK5ix0b4mOg-16" target="5zI7_Pe21EK5ix0b4mOg-16">
          <mxGeometry width="50" height="50" relative="1" as="geometry">
            <mxPoint x="80" y="910" as="sourcePoint" />
            <mxPoint x="130" y="860" as="targetPoint" />
          </mxGeometry>
        </mxCell>
        <mxCell id="5zI7_Pe21EK5ix0b4mOg-22" style="rounded=0;orthogonalLoop=1;jettySize=auto;html=1;exitX=0.5;exitY=0;exitDx=0;exitDy=0;startArrow=classicThin;startFill=1;entryX=0.065;entryY=1.067;entryDx=0;entryDy=0;entryPerimeter=0;" edge="1" parent="1" source="5zI7_Pe21EK5ix0b4mOg-18" target="5zI7_Pe21EK5ix0b4mOg-21">
          <mxGeometry relative="1" as="geometry" />
        </mxCell>
        <mxCell id="5zI7_Pe21EK5ix0b4mOg-18" value="eth0" style="rounded=0;whiteSpace=wrap;html=1;shadow=0;glass=0;sketch=0;" vertex="1" parent="1">
          <mxGeometry x="80" y="1080" width="120" height="60" as="geometry" />
        </mxCell>
        <mxCell id="5zI7_Pe21EK5ix0b4mOg-21" value="网络栈" style="rounded=1;whiteSpace=wrap;html=1;shadow=0;glass=0;sketch=0;" vertex="1" parent="1">
          <mxGeometry x="100" y="790" width="620" height="60" as="geometry" />
        </mxCell>
        <mxCell id="5zI7_Pe21EK5ix0b4mOg-24" value="" style="edgeStyle=none;rounded=0;orthogonalLoop=1;jettySize=auto;html=1;startArrow=classicThin;startFill=1;exitX=0.5;exitY=0;exitDx=0;exitDy=0;" edge="1" parent="1" source="5zI7_Pe21EK5ix0b4mOg-23">
          <mxGeometry relative="1" as="geometry">
            <mxPoint x="289.79470198675494" y="971" as="sourcePoint" />
            <mxPoint x="293" y="850" as="targetPoint" />
          </mxGeometry>
        </mxCell>
        <mxCell id="5zI7_Pe21EK5ix0b4mOg-42" style="rounded=0;orthogonalLoop=1;jettySize=auto;html=1;startArrow=classicThin;startFill=1;" edge="1" parent="1" source="5zI7_Pe21EK5ix0b4mOg-23" target="5zI7_Pe21EK5ix0b4mOg-26">
          <mxGeometry relative="1" as="geometry" />
        </mxCell>
        <mxCell id="5zI7_Pe21EK5ix0b4mOg-23" value="brtest" style="rounded=0;whiteSpace=wrap;html=1;shadow=0;glass=0;sketch=0;" vertex="1" parent="1">
          <mxGeometry x="234" y="943" width="120" height="60" as="geometry" />
        </mxCell>
        <mxCell id="5zI7_Pe21EK5ix0b4mOg-36" style="edgeStyle=none;rounded=0;orthogonalLoop=1;jettySize=auto;html=1;exitX=0.5;exitY=0;exitDx=0;exitDy=0;entryX=0.626;entryY=1.033;entryDx=0;entryDy=0;entryPerimeter=0;startArrow=classicThin;startFill=1;endArrow=none;endFill=0;" edge="1" parent="1" source="5zI7_Pe21EK5ix0b4mOg-26" target="5zI7_Pe21EK5ix0b4mOg-21">
          <mxGeometry relative="1" as="geometry" />
        </mxCell>
        <mxCell id="5zI7_Pe21EK5ix0b4mOg-38" style="edgeStyle=orthogonalEdgeStyle;rounded=0;orthogonalLoop=1;jettySize=auto;html=1;exitX=0.5;exitY=1;exitDx=0;exitDy=0;entryX=0.5;entryY=1;entryDx=0;entryDy=0;startArrow=classicThin;startFill=1;" edge="1" parent="1" source="5zI7_Pe21EK5ix0b4mOg-26" target="5zI7_Pe21EK5ix0b4mOg-30">
          <mxGeometry relative="1" as="geometry" />
        </mxCell>
        <mxCell id="5zI7_Pe21EK5ix0b4mOg-26" value="" style="rounded=0;whiteSpace=wrap;html=1;shadow=0;glass=0;sketch=0;" vertex="1" parent="1">
          <mxGeometry x="444" y="913" width="87" height="120" as="geometry" />
        </mxCell>
        <mxCell id="5zI7_Pe21EK5ix0b4mOg-28" style="edgeStyle=none;rounded=0;orthogonalLoop=1;jettySize=auto;html=1;exitX=0;exitY=0.5;exitDx=0;exitDy=0;startArrow=classicThin;startFill=1;" edge="1" parent="1" source="5zI7_Pe21EK5ix0b4mOg-26" target="5zI7_Pe21EK5ix0b4mOg-26">
          <mxGeometry relative="1" as="geometry" />
        </mxCell>
        <mxCell id="5zI7_Pe21EK5ix0b4mOg-29" value="" style="endArrow=none;dashed=1;html=1;exitX=0;exitY=0.5;exitDx=0;exitDy=0;entryX=1;entryY=0.5;entryDx=0;entryDy=0;" edge="1" parent="1" source="5zI7_Pe21EK5ix0b4mOg-26" target="5zI7_Pe21EK5ix0b4mOg-26">
          <mxGeometry width="50" height="50" relative="1" as="geometry">
            <mxPoint x="466" y="986" as="sourcePoint" />
            <mxPoint x="516" y="936" as="targetPoint" />
          </mxGeometry>
        </mxCell>
        <mxCell id="5zI7_Pe21EK5ix0b4mOg-37" style="edgeStyle=none;rounded=0;orthogonalLoop=1;jettySize=auto;html=1;exitX=0.5;exitY=0;exitDx=0;exitDy=0;startArrow=classicThin;startFill=1;entryX=0.868;entryY=1.017;entryDx=0;entryDy=0;entryPerimeter=0;" edge="1" parent="1" source="5zI7_Pe21EK5ix0b4mOg-30" target="5zI7_Pe21EK5ix0b4mOg-21">
          <mxGeometry relative="1" as="geometry">
            <mxPoint x="641" y="857" as="targetPoint" />
          </mxGeometry>
        </mxCell>
        <mxCell id="5zI7_Pe21EK5ix0b4mOg-30" value="" style="rounded=0;whiteSpace=wrap;html=1;shadow=0;glass=0;sketch=0;" vertex="1" parent="1">
          <mxGeometry x="593" y="913" width="87" height="120" as="geometry" />
        </mxCell>
        <mxCell id="5zI7_Pe21EK5ix0b4mOg-31" value="" style="endArrow=none;dashed=1;html=1;exitX=0;exitY=0.5;exitDx=0;exitDy=0;entryX=1;entryY=0.5;entryDx=0;entryDy=0;" edge="1" parent="1">
          <mxGeometry width="50" height="50" relative="1" as="geometry">
            <mxPoint x="595" y="972.5" as="sourcePoint" />
            <mxPoint x="682" y="972.5" as="targetPoint" />
          </mxGeometry>
        </mxCell>
        <mxCell id="5zI7_Pe21EK5ix0b4mOg-32" value="veth00" style="text;html=1;strokeColor=none;fillColor=none;align=center;verticalAlign=middle;whiteSpace=wrap;rounded=0;shadow=0;glass=0;sketch=0;" vertex="1" parent="1">
          <mxGeometry x="463" y="999" width="40" height="20" as="geometry" />
        </mxCell>
        <mxCell id="5zI7_Pe21EK5ix0b4mOg-33" value="veth01" style="text;html=1;strokeColor=none;fillColor=none;align=center;verticalAlign=middle;whiteSpace=wrap;rounded=0;shadow=0;glass=0;sketch=0;" vertex="1" parent="1">
          <mxGeometry x="616.5" y="999" width="40" height="20" as="geometry" />
        </mxCell>
        <mxCell id="5zI7_Pe21EK5ix0b4mOg-34" value="3.105" style="text;html=1;strokeColor=none;fillColor=none;align=center;verticalAlign=middle;whiteSpace=wrap;rounded=0;shadow=0;glass=0;sketch=0;" vertex="1" parent="1">
          <mxGeometry x="463" y="928" width="40" height="20" as="geometry" />
        </mxCell>
        <mxCell id="5zI7_Pe21EK5ix0b4mOg-35" value="3.106" style="text;html=1;strokeColor=none;fillColor=none;align=center;verticalAlign=middle;whiteSpace=wrap;rounded=0;shadow=0;glass=0;sketch=0;" vertex="1" parent="1">
          <mxGeometry x="616.5" y="933" width="40" height="20" as="geometry" />
        </mxCell>
        <mxCell id="5zI7_Pe21EK5ix0b4mOg-41" value="netns1" style="text;html=1;strokeColor=none;fillColor=none;align=center;verticalAlign=middle;whiteSpace=wrap;rounded=0;shadow=0;glass=0;dashed=1;dashPattern=1 1;sketch=0;" vertex="1" parent="1">
          <mxGeometry x="666" y="891" width="40" height="20" as="geometry" />
        </mxCell>
        <mxCell id="5zI7_Pe21EK5ix0b4mOg-44" value="" style="rounded=0;whiteSpace=wrap;html=1;shadow=0;glass=0;sketch=0;dashed=1;dashPattern=1 1;fillColor=#dae8fc;strokeColor=#6c8ebf;" vertex="1" parent="1">
          <mxGeometry x="637" y="1297" width="89" height="173" as="geometry" />
        </mxCell>
        <mxCell id="5zI7_Pe21EK5ix0b4mOg-45" value="" style="endArrow=none;dashed=1;html=1;exitX=0;exitY=0.25;exitDx=0;exitDy=0;entryX=1;entryY=0.25;entryDx=0;entryDy=0;" edge="1" source="5zI7_Pe21EK5ix0b4mOg-43" target="5zI7_Pe21EK5ix0b4mOg-43" parent="1">
          <mxGeometry width="50" height="50" relative="1" as="geometry">
            <mxPoint x="94" y="1334" as="sourcePoint" />
            <mxPoint x="144" y="1284" as="targetPoint" />
          </mxGeometry>
        </mxCell>
        <mxCell id="5zI7_Pe21EK5ix0b4mOg-46" style="rounded=0;orthogonalLoop=1;jettySize=auto;html=1;exitX=0.5;exitY=0;exitDx=0;exitDy=0;startArrow=classicThin;startFill=1;entryX=0.065;entryY=1.067;entryDx=0;entryDy=0;entryPerimeter=0;" edge="1" source="5zI7_Pe21EK5ix0b4mOg-47" target="5zI7_Pe21EK5ix0b4mOg-48" parent="1">
          <mxGeometry relative="1" as="geometry" />
        </mxCell>
        <mxCell id="5zI7_Pe21EK5ix0b4mOg-47" value="eth0" style="rounded=0;whiteSpace=wrap;html=1;shadow=0;glass=0;sketch=0;" vertex="1" parent="1">
          <mxGeometry x="94" y="1504" width="120" height="60" as="geometry" />
        </mxCell>
        <mxCell id="5zI7_Pe21EK5ix0b4mOg-48" value="网络栈" style="rounded=1;whiteSpace=wrap;html=1;shadow=0;glass=0;sketch=0;" vertex="1" parent="1">
          <mxGeometry x="114" y="1214" width="620" height="60" as="geometry" />
        </mxCell>
        <mxCell id="5zI7_Pe21EK5ix0b4mOg-49" value="" style="edgeStyle=none;rounded=0;orthogonalLoop=1;jettySize=auto;html=1;startArrow=classicThin;startFill=1;exitX=0.5;exitY=0;exitDx=0;exitDy=0;entryX=0.563;entryY=1;entryDx=0;entryDy=0;entryPerimeter=0;" edge="1" source="5zI7_Pe21EK5ix0b4mOg-51" parent="1" target="5zI7_Pe21EK5ix0b4mOg-48">
          <mxGeometry relative="1" as="geometry">
            <mxPoint x="303.79470198675494" y="1395" as="sourcePoint" />
            <mxPoint x="307" y="1274" as="targetPoint" />
          </mxGeometry>
        </mxCell>
        <mxCell id="5zI7_Pe21EK5ix0b4mOg-81" style="edgeStyle=orthogonalEdgeStyle;rounded=0;orthogonalLoop=1;jettySize=auto;html=1;entryX=1;entryY=0.5;entryDx=0;entryDy=0;startArrow=classicThin;startFill=1;endArrow=classic;endFill=1;" edge="1" parent="1" source="5zI7_Pe21EK5ix0b4mOg-51" target="5zI7_Pe21EK5ix0b4mOg-71">
          <mxGeometry relative="1" as="geometry" />
        </mxCell>
        <mxCell id="5zI7_Pe21EK5ix0b4mOg-82" value="" style="rounded=0;orthogonalLoop=1;jettySize=auto;html=1;startArrow=classicThin;startFill=1;endArrow=classic;endFill=1;" edge="1" parent="1" source="5zI7_Pe21EK5ix0b4mOg-51">
          <mxGeometry relative="1" as="geometry">
            <mxPoint x="577" y="1397" as="targetPoint" />
          </mxGeometry>
        </mxCell>
        <mxCell id="5zI7_Pe21EK5ix0b4mOg-51" value="docker0" style="rounded=0;whiteSpace=wrap;html=1;shadow=0;glass=0;sketch=0;" vertex="1" parent="1">
          <mxGeometry x="405" y="1367" width="120" height="60" as="geometry" />
        </mxCell>
        <mxCell id="5zI7_Pe21EK5ix0b4mOg-53" style="edgeStyle=orthogonalEdgeStyle;rounded=0;orthogonalLoop=1;jettySize=auto;html=1;exitX=0.5;exitY=1;exitDx=0;exitDy=0;entryX=0.5;entryY=1;entryDx=0;entryDy=0;startArrow=classicThin;startFill=1;" edge="1" source="5zI7_Pe21EK5ix0b4mOg-66" target="5zI7_Pe21EK5ix0b4mOg-58" parent="1">
          <mxGeometry relative="1" as="geometry" />
        </mxCell>
        <mxCell id="5zI7_Pe21EK5ix0b4mOg-55" style="edgeStyle=none;rounded=0;orthogonalLoop=1;jettySize=auto;html=1;exitX=0;exitY=0.5;exitDx=0;exitDy=0;startArrow=classicThin;startFill=1;" edge="1" parent="1">
          <mxGeometry relative="1" as="geometry">
            <mxPoint x="458" y="1397" as="sourcePoint" />
            <mxPoint x="458" y="1397" as="targetPoint" />
          </mxGeometry>
        </mxCell>
        <mxCell id="5zI7_Pe21EK5ix0b4mOg-57" style="edgeStyle=none;rounded=0;orthogonalLoop=1;jettySize=auto;html=1;exitX=0.5;exitY=0;exitDx=0;exitDy=0;startArrow=classicThin;startFill=1;entryX=0.894;entryY=1.05;entryDx=0;entryDy=0;entryPerimeter=0;" edge="1" source="5zI7_Pe21EK5ix0b4mOg-58" target="5zI7_Pe21EK5ix0b4mOg-48" parent="1">
          <mxGeometry relative="1" as="geometry">
            <mxPoint x="655" y="1281" as="targetPoint" />
          </mxGeometry>
        </mxCell>
        <mxCell id="5zI7_Pe21EK5ix0b4mOg-58" value="" style="rounded=0;whiteSpace=wrap;html=1;shadow=0;glass=0;sketch=0;fillColor=#dae8fc;strokeColor=#6c8ebf;" vertex="1" parent="1">
          <mxGeometry x="644" y="1337" width="50" height="120" as="geometry" />
        </mxCell>
        <mxCell id="5zI7_Pe21EK5ix0b4mOg-59" value="" style="endArrow=none;dashed=1;html=1;entryX=1;entryY=0.5;entryDx=0;entryDy=0;" edge="1" parent="1">
          <mxGeometry width="50" height="50" relative="1" as="geometry">
            <mxPoint x="645" y="1397" as="sourcePoint" />
            <mxPoint x="696" y="1396.5" as="targetPoint" />
          </mxGeometry>
        </mxCell>
        <mxCell id="5zI7_Pe21EK5ix0b4mOg-61" value="eth0" style="text;html=1;strokeColor=none;fillColor=none;align=center;verticalAlign=middle;whiteSpace=wrap;rounded=0;shadow=0;glass=0;sketch=0;" vertex="1" parent="1">
          <mxGeometry x="647" y="1421" width="40" height="20" as="geometry" />
        </mxCell>
        <mxCell id="5zI7_Pe21EK5ix0b4mOg-63" value="3.106" style="text;html=1;strokeColor=none;fillColor=none;align=center;verticalAlign=middle;whiteSpace=wrap;rounded=0;shadow=0;glass=0;sketch=0;" vertex="1" parent="1">
          <mxGeometry x="647" y="1356" width="40" height="20" as="geometry" />
        </mxCell>
        <mxCell id="5zI7_Pe21EK5ix0b4mOg-64" value="netns1" style="text;html=1;strokeColor=none;fillColor=none;align=center;verticalAlign=middle;whiteSpace=wrap;rounded=0;shadow=0;glass=0;dashed=1;dashPattern=1 1;sketch=0;" vertex="1" parent="1">
          <mxGeometry x="680" y="1315" width="40" height="20" as="geometry" />
        </mxCell>
        <mxCell id="5zI7_Pe21EK5ix0b4mOg-66" value="" style="rounded=0;whiteSpace=wrap;html=1;shadow=0;glass=0;sketch=0;" vertex="1" parent="1">
          <mxGeometry x="574" y="1337" width="50" height="120" as="geometry" />
        </mxCell>
        <mxCell id="5zI7_Pe21EK5ix0b4mOg-69" value="" style="endArrow=none;dashed=1;html=1;entryX=1;entryY=0.5;entryDx=0;entryDy=0;" edge="1" parent="1">
          <mxGeometry width="50" height="50" relative="1" as="geometry">
            <mxPoint x="574" y="1395.5" as="sourcePoint" />
            <mxPoint x="625" y="1395" as="targetPoint" />
          </mxGeometry>
        </mxCell>
        <mxCell id="5zI7_Pe21EK5ix0b4mOg-70" value="veth00" style="text;html=1;strokeColor=none;fillColor=none;align=center;verticalAlign=middle;whiteSpace=wrap;rounded=0;shadow=0;glass=0;sketch=0;" vertex="1" parent="1">
          <mxGeometry x="576.5" y="1421" width="40" height="20" as="geometry" />
        </mxCell>
        <mxCell id="5zI7_Pe21EK5ix0b4mOg-71" value="" style="rounded=0;whiteSpace=wrap;html=1;shadow=0;glass=0;sketch=0;" vertex="1" parent="1">
          <mxGeometry x="269" y="1337" width="50" height="120" as="geometry" />
        </mxCell>
        <mxCell id="5zI7_Pe21EK5ix0b4mOg-72" value="" style="endArrow=none;dashed=1;html=1;entryX=1;entryY=0.5;entryDx=0;entryDy=0;" edge="1" parent="1">
          <mxGeometry width="50" height="50" relative="1" as="geometry">
            <mxPoint x="268" y="1397" as="sourcePoint" />
            <mxPoint x="319" y="1396.5" as="targetPoint" />
          </mxGeometry>
        </mxCell>
        <mxCell id="5zI7_Pe21EK5ix0b4mOg-73" value="3.105" style="text;html=1;strokeColor=none;fillColor=none;align=center;verticalAlign=middle;whiteSpace=wrap;rounded=0;shadow=0;glass=0;sketch=0;" vertex="1" parent="1">
          <mxGeometry x="205" y="1354" width="40" height="20" as="geometry" />
        </mxCell>
        <mxCell id="5zI7_Pe21EK5ix0b4mOg-74" value="veth01" style="text;html=1;strokeColor=none;fillColor=none;align=center;verticalAlign=middle;whiteSpace=wrap;rounded=0;shadow=0;glass=0;sketch=0;" vertex="1" parent="1">
          <mxGeometry x="274" y="1421" width="40" height="20" as="geometry" />
        </mxCell>
        <mxCell id="5zI7_Pe21EK5ix0b4mOg-78" style="edgeStyle=none;rounded=0;orthogonalLoop=1;jettySize=auto;html=1;exitX=0.5;exitY=0;exitDx=0;exitDy=0;entryX=0.181;entryY=1;entryDx=0;entryDy=0;entryPerimeter=0;startArrow=classicThin;startFill=1;endArrow=classic;endFill=1;" edge="1" parent="1" source="5zI7_Pe21EK5ix0b4mOg-75" target="5zI7_Pe21EK5ix0b4mOg-48">
          <mxGeometry relative="1" as="geometry" />
        </mxCell>
        <mxCell id="5zI7_Pe21EK5ix0b4mOg-80" style="edgeStyle=orthogonalEdgeStyle;rounded=0;orthogonalLoop=1;jettySize=auto;html=1;exitX=0.5;exitY=1;exitDx=0;exitDy=0;entryX=0.5;entryY=1;entryDx=0;entryDy=0;startArrow=classicThin;startFill=1;endArrow=classic;endFill=1;" edge="1" parent="1" source="5zI7_Pe21EK5ix0b4mOg-75" target="5zI7_Pe21EK5ix0b4mOg-71">
          <mxGeometry relative="1" as="geometry" />
        </mxCell>
        <mxCell id="5zI7_Pe21EK5ix0b4mOg-75" value="" style="rounded=0;whiteSpace=wrap;html=1;shadow=0;glass=0;sketch=0;fillColor=#dae8fc;strokeColor=#6c8ebf;" vertex="1" parent="1">
          <mxGeometry x="200" y="1336" width="50" height="121" as="geometry" />
        </mxCell>
        <mxCell id="5zI7_Pe21EK5ix0b4mOg-76" value="" style="endArrow=none;dashed=1;html=1;entryX=1;entryY=0.5;entryDx=0;entryDy=0;" edge="1" parent="1">
          <mxGeometry width="50" height="50" relative="1" as="geometry">
            <mxPoint x="200" y="1397" as="sourcePoint" />
            <mxPoint x="251" y="1396.5" as="targetPoint" />
          </mxGeometry>
        </mxCell>
        <mxCell id="5zI7_Pe21EK5ix0b4mOg-77" value="eth0" style="text;html=1;strokeColor=none;fillColor=none;align=center;verticalAlign=middle;whiteSpace=wrap;rounded=0;shadow=0;glass=0;sketch=0;" vertex="1" parent="1">
          <mxGeometry x="203" y="1421" width="40" height="20" as="geometry" />
        </mxCell>
        <mxCell id="5zI7_Pe21EK5ix0b4mOg-84" value="netns0" style="text;html=1;strokeColor=none;fillColor=none;align=center;verticalAlign=middle;whiteSpace=wrap;rounded=0;shadow=0;glass=0;dashed=1;dashPattern=1 1;sketch=0;" vertex="1" parent="1">
          <mxGeometry x="179" y="1312" width="40" height="20" as="geometry" />
        </mxCell>
        <mxCell id="5zI7_Pe21EK5ix0b4mOg-85" value="3.101" style="text;html=1;strokeColor=none;fillColor=none;align=center;verticalAlign=middle;whiteSpace=wrap;rounded=0;shadow=0;glass=0;dashed=1;dashPattern=1 1;sketch=0;" vertex="1" parent="1">
          <mxGeometry x="208" y="1352" width="40" height="20" as="geometry" />
        </mxCell>
        <mxCell id="5zI7_Pe21EK5ix0b4mOg-119" value="" style="rounded=0;whiteSpace=wrap;html=1;shadow=0;glass=0;sketch=0;" vertex="1" parent="1">
          <mxGeometry x="37" y="1843" width="720" height="370" as="geometry" />
        </mxCell>
        <mxCell id="5zI7_Pe21EK5ix0b4mOg-121" value="" style="rounded=0;whiteSpace=wrap;html=1;shadow=0;glass=0;sketch=0;dashed=1;dashPattern=1 1;fillColor=#dae8fc;strokeColor=#6c8ebf;" vertex="1" parent="1">
          <mxGeometry x="620" y="1946" width="89" height="173" as="geometry" />
        </mxCell>
        <mxCell id="5zI7_Pe21EK5ix0b4mOg-122" value="" style="endArrow=none;dashed=1;html=1;exitX=0;exitY=0.25;exitDx=0;exitDy=0;entryX=1;entryY=0.25;entryDx=0;entryDy=0;" edge="1" source="5zI7_Pe21EK5ix0b4mOg-119" target="5zI7_Pe21EK5ix0b4mOg-119" parent="1">
          <mxGeometry width="50" height="50" relative="1" as="geometry">
            <mxPoint x="77" y="1983" as="sourcePoint" />
            <mxPoint x="127" y="1933" as="targetPoint" />
          </mxGeometry>
        </mxCell>
        <mxCell id="5zI7_Pe21EK5ix0b4mOg-123" style="rounded=0;orthogonalLoop=1;jettySize=auto;html=1;exitX=0.5;exitY=0;exitDx=0;exitDy=0;startArrow=classicThin;startFill=1;entryX=0.065;entryY=1.067;entryDx=0;entryDy=0;entryPerimeter=0;" edge="1" source="5zI7_Pe21EK5ix0b4mOg-124" target="5zI7_Pe21EK5ix0b4mOg-125" parent="1">
          <mxGeometry relative="1" as="geometry" />
        </mxCell>
        <mxCell id="5zI7_Pe21EK5ix0b4mOg-153" style="edgeStyle=none;rounded=0;orthogonalLoop=1;jettySize=auto;html=1;startArrow=classicThin;startFill=1;endArrow=classic;endFill=1;" edge="1" parent="1" source="5zI7_Pe21EK5ix0b4mOg-124" target="5zI7_Pe21EK5ix0b4mOg-152">
          <mxGeometry relative="1" as="geometry" />
        </mxCell>
        <mxCell id="5zI7_Pe21EK5ix0b4mOg-124" value="eth0" style="rounded=0;whiteSpace=wrap;html=1;shadow=0;glass=0;sketch=0;" vertex="1" parent="1">
          <mxGeometry x="77" y="2153" width="120" height="60" as="geometry" />
        </mxCell>
        <mxCell id="5zI7_Pe21EK5ix0b4mOg-125" value="网络栈" style="rounded=1;whiteSpace=wrap;html=1;shadow=0;glass=0;sketch=0;" vertex="1" parent="1">
          <mxGeometry x="97" y="1863" width="620" height="60" as="geometry" />
        </mxCell>
        <mxCell id="5zI7_Pe21EK5ix0b4mOg-126" value="" style="edgeStyle=none;rounded=0;orthogonalLoop=1;jettySize=auto;html=1;startArrow=classicThin;startFill=1;exitX=0.5;exitY=0;exitDx=0;exitDy=0;entryX=0.563;entryY=1;entryDx=0;entryDy=0;entryPerimeter=0;" edge="1" source="5zI7_Pe21EK5ix0b4mOg-129" target="5zI7_Pe21EK5ix0b4mOg-125" parent="1">
          <mxGeometry relative="1" as="geometry">
            <mxPoint x="286.79470198675494" y="2044" as="sourcePoint" />
            <mxPoint x="290" y="1923" as="targetPoint" />
          </mxGeometry>
        </mxCell>
        <mxCell id="5zI7_Pe21EK5ix0b4mOg-128" value="" style="rounded=0;orthogonalLoop=1;jettySize=auto;html=1;startArrow=classicThin;startFill=1;endArrow=classic;endFill=1;" edge="1" source="5zI7_Pe21EK5ix0b4mOg-129" parent="1">
          <mxGeometry relative="1" as="geometry">
            <mxPoint x="560" y="2046" as="targetPoint" />
          </mxGeometry>
        </mxCell>
        <mxCell id="5zI7_Pe21EK5ix0b4mOg-129" value="docker0" style="rounded=0;whiteSpace=wrap;html=1;shadow=0;glass=0;sketch=0;" vertex="1" parent="1">
          <mxGeometry x="388" y="2016" width="120" height="60" as="geometry" />
        </mxCell>
        <mxCell id="5zI7_Pe21EK5ix0b4mOg-130" style="edgeStyle=orthogonalEdgeStyle;rounded=0;orthogonalLoop=1;jettySize=auto;html=1;exitX=0.5;exitY=1;exitDx=0;exitDy=0;entryX=0.5;entryY=1;entryDx=0;entryDy=0;startArrow=classicThin;startFill=1;" edge="1" source="5zI7_Pe21EK5ix0b4mOg-138" target="5zI7_Pe21EK5ix0b4mOg-133" parent="1">
          <mxGeometry relative="1" as="geometry" />
        </mxCell>
        <mxCell id="5zI7_Pe21EK5ix0b4mOg-131" style="edgeStyle=none;rounded=0;orthogonalLoop=1;jettySize=auto;html=1;exitX=0;exitY=0.5;exitDx=0;exitDy=0;startArrow=classicThin;startFill=1;" edge="1" parent="1">
          <mxGeometry relative="1" as="geometry">
            <mxPoint x="441" y="2046" as="sourcePoint" />
            <mxPoint x="441" y="2046" as="targetPoint" />
          </mxGeometry>
        </mxCell>
        <mxCell id="5zI7_Pe21EK5ix0b4mOg-132" style="edgeStyle=none;rounded=0;orthogonalLoop=1;jettySize=auto;html=1;exitX=0.5;exitY=0;exitDx=0;exitDy=0;startArrow=classicThin;startFill=1;entryX=0.894;entryY=1.05;entryDx=0;entryDy=0;entryPerimeter=0;" edge="1" source="5zI7_Pe21EK5ix0b4mOg-133" target="5zI7_Pe21EK5ix0b4mOg-125" parent="1">
          <mxGeometry relative="1" as="geometry">
            <mxPoint x="638" y="1930" as="targetPoint" />
          </mxGeometry>
        </mxCell>
        <mxCell id="5zI7_Pe21EK5ix0b4mOg-133" value="" style="rounded=0;whiteSpace=wrap;html=1;shadow=0;glass=0;sketch=0;fillColor=#dae8fc;strokeColor=#6c8ebf;" vertex="1" parent="1">
          <mxGeometry x="627" y="1986" width="50" height="120" as="geometry" />
        </mxCell>
        <mxCell id="5zI7_Pe21EK5ix0b4mOg-134" value="" style="endArrow=none;dashed=1;html=1;entryX=1;entryY=0.5;entryDx=0;entryDy=0;" edge="1" parent="1">
          <mxGeometry width="50" height="50" relative="1" as="geometry">
            <mxPoint x="628" y="2046" as="sourcePoint" />
            <mxPoint x="679" y="2045.5" as="targetPoint" />
          </mxGeometry>
        </mxCell>
        <mxCell id="5zI7_Pe21EK5ix0b4mOg-135" value="eth0" style="text;html=1;strokeColor=none;fillColor=none;align=center;verticalAlign=middle;whiteSpace=wrap;rounded=0;shadow=0;glass=0;sketch=0;" vertex="1" parent="1">
          <mxGeometry x="630" y="2070" width="40" height="20" as="geometry" />
        </mxCell>
        <mxCell id="5zI7_Pe21EK5ix0b4mOg-136" value="3.106" style="text;html=1;strokeColor=none;fillColor=none;align=center;verticalAlign=middle;whiteSpace=wrap;rounded=0;shadow=0;glass=0;sketch=0;" vertex="1" parent="1">
          <mxGeometry x="630" y="2005" width="40" height="20" as="geometry" />
        </mxCell>
        <mxCell id="5zI7_Pe21EK5ix0b4mOg-137" value="netns1" style="text;html=1;strokeColor=none;fillColor=none;align=center;verticalAlign=middle;whiteSpace=wrap;rounded=0;shadow=0;glass=0;dashed=1;dashPattern=1 1;sketch=0;" vertex="1" parent="1">
          <mxGeometry x="663" y="1964" width="40" height="20" as="geometry" />
        </mxCell>
        <mxCell id="5zI7_Pe21EK5ix0b4mOg-138" value="" style="rounded=0;whiteSpace=wrap;html=1;shadow=0;glass=0;sketch=0;" vertex="1" parent="1">
          <mxGeometry x="557" y="1986" width="50" height="120" as="geometry" />
        </mxCell>
        <mxCell id="5zI7_Pe21EK5ix0b4mOg-139" value="" style="endArrow=none;dashed=1;html=1;entryX=1;entryY=0.5;entryDx=0;entryDy=0;" edge="1" parent="1">
          <mxGeometry width="50" height="50" relative="1" as="geometry">
            <mxPoint x="557" y="2044.5" as="sourcePoint" />
            <mxPoint x="608" y="2044" as="targetPoint" />
          </mxGeometry>
        </mxCell>
        <mxCell id="5zI7_Pe21EK5ix0b4mOg-140" value="veth00" style="text;html=1;strokeColor=none;fillColor=none;align=center;verticalAlign=middle;whiteSpace=wrap;rounded=0;shadow=0;glass=0;sketch=0;" vertex="1" parent="1">
          <mxGeometry x="559.5" y="2070" width="40" height="20" as="geometry" />
        </mxCell>
        <mxCell id="5zI7_Pe21EK5ix0b4mOg-152" value="baidu" style="html=1;outlineConnect=0;fillColor=#CCCCCC;strokeColor=#6881B3;gradientColor=none;gradientDirection=north;strokeWidth=2;shape=mxgraph.networks.cloud;fontColor=#ffffff;rounded=0;shadow=0;glass=0;dashed=1;dashPattern=1 1;sketch=0;" vertex="1" parent="1">
          <mxGeometry x="160" y="2281" width="90" height="50" as="geometry" />
        </mxCell>
        <mxCell id="5zI7_Pe21EK5ix0b4mOg-154" value="apiserver" style="rounded=0;whiteSpace=wrap;html=1;shadow=0;glass=0;dashed=1;dashPattern=1 1;sketch=0;" vertex="1" parent="1">
          <mxGeometry x="48" y="2491" width="656" height="62" as="geometry" />
        </mxCell>
        <mxCell id="5zI7_Pe21EK5ix0b4mOg-159" style="edgeStyle=none;rounded=0;orthogonalLoop=1;jettySize=auto;html=1;exitX=0.5;exitY=0;exitDx=0;exitDy=0;entryX=0.303;entryY=0.984;entryDx=0;entryDy=0;entryPerimeter=0;startArrow=none;startFill=0;endArrow=classic;endFill=1;" edge="1" parent="1" source="5zI7_Pe21EK5ix0b4mOg-155" target="5zI7_Pe21EK5ix0b4mOg-154">
          <mxGeometry relative="1" as="geometry" />
        </mxCell>
        <mxCell id="5zI7_Pe21EK5ix0b4mOg-160" value="1.watch到需要启动的POD" style="edgeLabel;html=1;align=center;verticalAlign=middle;resizable=0;points=[];" vertex="1" connectable="0" parent="5zI7_Pe21EK5ix0b4mOg-159">
          <mxGeometry x="-0.0163" y="2" relative="1" as="geometry">
            <mxPoint as="offset" />
          </mxGeometry>
        </mxCell>
        <mxCell id="5zI7_Pe21EK5ix0b4mOg-162" style="edgeStyle=none;rounded=0;orthogonalLoop=1;jettySize=auto;html=1;exitX=1;exitY=0.25;exitDx=0;exitDy=0;entryX=0;entryY=0.5;entryDx=0;entryDy=0;startArrow=none;startFill=0;endArrow=classic;endFill=1;" edge="1" parent="1" source="5zI7_Pe21EK5ix0b4mOg-155" target="5zI7_Pe21EK5ix0b4mOg-161">
          <mxGeometry relative="1" as="geometry" />
        </mxCell>
        <mxCell id="5zI7_Pe21EK5ix0b4mOg-163" value="2. 创建pause容器" style="edgeLabel;html=1;align=center;verticalAlign=middle;resizable=0;points=[];" vertex="1" connectable="0" parent="5zI7_Pe21EK5ix0b4mOg-162">
          <mxGeometry x="-0.1863" y="-2" relative="1" as="geometry">
            <mxPoint as="offset" />
          </mxGeometry>
        </mxCell>
        <mxCell id="5zI7_Pe21EK5ix0b4mOg-165" style="edgeStyle=none;rounded=0;orthogonalLoop=1;jettySize=auto;html=1;exitX=1;exitY=0.75;exitDx=0;exitDy=0;entryX=0;entryY=0.5;entryDx=0;entryDy=0;startArrow=none;startFill=0;endArrow=classic;endFill=1;" edge="1" parent="1" source="5zI7_Pe21EK5ix0b4mOg-155" target="5zI7_Pe21EK5ix0b4mOg-164">
          <mxGeometry relative="1" as="geometry" />
        </mxCell>
        <mxCell id="5zI7_Pe21EK5ix0b4mOg-166" value="3.&amp;nbsp; CNI ADD" style="edgeLabel;html=1;align=center;verticalAlign=middle;resizable=0;points=[];" vertex="1" connectable="0" parent="5zI7_Pe21EK5ix0b4mOg-165">
          <mxGeometry x="-0.0774" y="4" relative="1" as="geometry">
            <mxPoint as="offset" />
          </mxGeometry>
        </mxCell>
        <mxCell id="5zI7_Pe21EK5ix0b4mOg-155" value="" style="rounded=0;whiteSpace=wrap;html=1;shadow=0;glass=0;dashed=1;dashPattern=1 1;sketch=0;" vertex="1" parent="1">
          <mxGeometry x="51" y="2620" width="120" height="221" as="geometry" />
        </mxCell>
        <mxCell id="5zI7_Pe21EK5ix0b4mOg-156" value="kubelet" style="text;html=1;strokeColor=none;fillColor=none;align=center;verticalAlign=middle;whiteSpace=wrap;rounded=0;shadow=0;glass=0;dashed=1;dashPattern=1 1;sketch=0;" vertex="1" parent="1">
          <mxGeometry x="82" y="2628" width="40" height="20" as="geometry" />
        </mxCell>
        <mxCell id="5zI7_Pe21EK5ix0b4mOg-161" value="container1" style="rounded=1;whiteSpace=wrap;html=1;shadow=0;glass=0;dashed=1;dashPattern=1 1;sketch=0;" vertex="1" parent="1">
          <mxGeometry x="343" y="2643" width="120" height="60" as="geometry" />
        </mxCell>
        <mxCell id="5zI7_Pe21EK5ix0b4mOg-167" style="edgeStyle=none;rounded=0;orthogonalLoop=1;jettySize=auto;html=1;exitX=0.5;exitY=0;exitDx=0;exitDy=0;entryX=0.5;entryY=1;entryDx=0;entryDy=0;startArrow=none;startFill=0;endArrow=classic;endFill=1;" edge="1" parent="1" source="5zI7_Pe21EK5ix0b4mOg-164" target="5zI7_Pe21EK5ix0b4mOg-161">
          <mxGeometry relative="1" as="geometry" />
        </mxCell>
        <mxCell id="5zI7_Pe21EK5ix0b4mOg-168" value="4. 配置容器网络" style="edgeLabel;html=1;align=center;verticalAlign=middle;resizable=0;points=[];" vertex="1" connectable="0" parent="5zI7_Pe21EK5ix0b4mOg-167">
          <mxGeometry x="0.0385" y="2" relative="1" as="geometry">
            <mxPoint as="offset" />
          </mxGeometry>
        </mxCell>
        <mxCell id="5zI7_Pe21EK5ix0b4mOg-164" value="CNI插件" style="rounded=1;whiteSpace=wrap;html=1;shadow=0;glass=0;dashed=1;dashPattern=1 1;sketch=0;" vertex="1" parent="1">
          <mxGeometry x="343" y="2755" width="120" height="60" as="geometry" />
        </mxCell>
      </root>
    </mxGraphModel>
  </diagram>
</mxfile>
